<?xml version="1.0" standalone="no"?>
<!DOCTYPE svg PUBLIC "-//W3C//DTD SVG 20010904//EN"
 "http://www.w3.org/TR/2001/REC-SVG-20010904/DTD/svg10.dtd">
<svg version="1.0" xmlns="http://www.w3.org/2000/svg"
 width="700.000000pt" height="700.000000pt" viewBox="0 0 700.000000 700.000000"
 preserveAspectRatio="xMidYMid meet">
<metadata>
Created by potrace 1.14, written by Peter Selinger 2001-2017
</metadata>
<g transform="translate(0.000000,700.000000) scale(0.100000,-0.100000)"
fill="#000000" stroke="none">
<path d="M1754 6864 c4 -77 9 -155 10 -174 16 -178 33 -314 56 -450 26 -153
26 -152 -22 -192 -145 -119 -274 -281 -351 -442 -136 -281 -166 -571 -93 -901
13 -61 63 -191 106 -275 l50 -96 -35 -97 c-56 -156 -111 -372 -130 -512 -3
-22 -7 -51 -10 -65 -19 -129 -26 -480 -11 -620 42 -400 165 -709 393 -992 l63
-78 -684 0 c-423 0 -704 -4 -737 -10 -169 -32 -312 -168 -348 -333 -15 -65 -6
-185 19 -250 46 -121 140 -212 270 -261 54 -20 71 -20 1190 -21 980 -1 1135
-3 1135 -16 -3 -104 -36 -207 -94 -295 -49 -75 -106 -135 -258 -268 -67 -58
-142 -130 -167 -158 -79 -90 -136 -229 -136 -329 l0 -28 98 35 c208 76 482
152 612 169 190 26 242 16 375 -71 164 -107 264 -134 465 -129 69 2 142 7 163
10 59 10 172 60 239 105 33 22 64 40 69 40 5 0 9 3 9 8 0 4 21 16 48 27 76 31
211 26 402 -15 107 -24 105 -23 180 -45 30 -9 62 -18 70 -20 8 -2 86 -28 174
-58 l158 -55 -5 57 c-18 169 -86 273 -306 464 -167 145 -229 213 -279 299 -39
69 -69 194 -63 263 1 7 379 10 1114 9 826 0 1125 2 1164 11 157 36 288 163
329 317 7 30 12 85 9 133 -7 177 -115 320 -295 392 -41 16 -105 18 -762 23
l-718 5 28 30 c39 42 130 167 178 245 130 212 219 490 250 785 10 91 10 396 1
505 -13 145 -37 290 -68 415 -11 44 -22 90 -25 102 -2 12 -25 81 -50 153 -45
130 -45 130 -26 158 53 79 141 313 156 418 19 132 23 177 21 273 -3 127 -9
170 -36 281 -69 280 -224 525 -446 707 l-44 37 6 55 c3 31 10 74 15 96 5 22
11 63 14 90 8 73 15 126 20 160 5 26 10 77 22 205 2 19 6 98 10 174 l6 139
-43 -7 c-117 -19 -279 -139 -450 -336 -71 -81 -209 -261 -228 -297 -10 -21
-17 -22 -134 -21 -67 0 -140 -2 -162 -6 -22 -3 -60 -8 -84 -11 -177 -24 -434
-140 -592 -268 l-60 -48 -47 39 c-98 81 -240 163 -362 210 -156 60 -298 84
-480 83 l-125 0 -25 37 c-32 46 -138 188 -170 226 -198 236 -371 372 -499 391
l-44 7 7 -138z"/>
</g>
</svg>
